<?xml version="1.0" standalone="no"?>
<!DOCTYPE svg PUBLIC "-//W3C//DTD SVG 20010904//EN"
 "http://www.w3.org/TR/2001/REC-SVG-20010904/DTD/svg10.dtd">
<svg version="1.0" xmlns="http://www.w3.org/2000/svg"
 width="636.000000pt" height="636.000000pt" viewBox="0 0 636.000000 636.000000"
 preserveAspectRatio="xMidYMid meet">
<metadata>
Created by potrace 1.11, written by Peter Selinger 2001-2013
</metadata>
<g transform="translate(0.000000,636.000000) scale(0.100000,-0.100000)"
fill="#000000" stroke="none">
<path d="M1040 4447 c-46 -27 -56 -37 -58 -63 -3 -26 3 -37 33 -61 43 -36 83
-49 193 -62 115 -14 160 -28 189 -57 24 -25 25 -28 21 -142 -4 -113 -6 -121
-57 -252 -33 -83 -58 -166 -65 -215 -11 -71 -17 -84 -50 -119 -36 -37 -37 -40
-35 -110 2 -66 0 -75 -34 -131 -21 -35 -42 -86 -49 -120 -6 -33 -31 -106 -55
-163 -24 -57 -57 -160 -74 -230 -36 -153 -54 -190 -127 -264 -43 -45 -68 -61
-108 -73 -62 -18 -84 -37 -84 -71 0 -39 18 -64 58 -81 51 -21 217 -29 290 -14
49 11 66 10 115 -4 44 -13 88 -16 192 -13 150 3 168 11 181 75 6 28 3 34 -27
52 -26 16 -51 21 -102 21 l-69 0 -69 66 c-77 75 -93 111 -84 181 8 53 38 149
65 203 10 19 39 105 64 190 26 85 63 195 82 244 26 65 37 114 43 180 5 50 16
108 25 128 9 21 16 58 16 83 0 33 9 61 32 102 18 32 37 83 44 113 9 48 14 55
36 58 20 2 32 -5 54 -35 36 -47 40 -51 85 -63 24 -7 40 -19 48 -37 7 -15 36
-63 66 -107 29 -45 56 -98 60 -120 4 -25 20 -52 46 -79 21 -23 43 -56 48 -73
5 -17 31 -65 59 -105 27 -41 52 -88 56 -106 4 -17 30 -64 58 -104 135 -192
270 -431 318 -562 64 -177 139 -282 196 -275 35 4 51 44 64 158 4 41 23 131
43 200 21 75 40 171 46 240 9 85 19 129 38 169 14 30 34 86 44 124 11 37 33
99 51 135 24 53 31 82 33 142 2 60 13 106 55 230 28 85 64 172 78 193 33 49
61 162 55 221 -7 56 26 118 87 166 44 35 200 89 281 97 84 9 209 -68 209 -129
0 -12 -18 -57 -41 -101 -35 -68 -40 -86 -35 -120 8 -51 -24 -153 -71 -222 -31
-47 -33 -54 -33 -141 0 -110 -6 -130 -109 -339 -114 -230 -204 -477 -211 -580
-5 -66 -11 -88 -32 -115 -14 -19 -28 -46 -32 -60 -8 -32 -22 -49 -69 -84 -32
-25 -51 -30 -130 -37 -114 -11 -141 -27 -145 -88 -2 -26 3 -52 12 -66 29 -44
144 -59 226 -30 32 11 88 15 219 15 113 0 200 5 242 14 66 14 142 47 154 66
12 19 -17 51 -61 70 -101 44 -120 109 -64 220 22 43 30 74 30 110 0 31 10 74
25 112 14 34 25 78 25 98 0 21 11 57 24 81 13 24 26 63 30 85 5 37 110 257
138 291 6 7 28 13 50 13 50 0 85 -34 112 -111 10 -30 33 -72 51 -94 42 -52 50
-69 65 -135 7 -30 26 -73 41 -94 24 -34 29 -50 29 -100 0 -52 5 -69 35 -117
19 -32 39 -79 44 -106 20 -102 125 -353 182 -434 10 -14 23 -48 29 -74 6 -27
24 -63 41 -82 16 -19 47 -70 69 -113 22 -43 53 -94 70 -113 16 -19 38 -54 49
-78 27 -63 116 -163 192 -215 102 -73 130 -84 204 -84 40 0 88 -8 126 -21 49
-17 73 -20 127 -14 227 23 398 110 457 230 30 62 33 173 6 229 -36 73 -113 96
-191 56 -50 -26 -60 -46 -70 -139 -13 -121 -35 -193 -67 -218 -43 -35 -79 -30
-125 17 -35 35 -46 40 -86 40 -43 0 -48 3 -136 92 -51 51 -118 127 -151 168
-32 41 -76 95 -98 120 -22 25 -57 80 -79 123 -21 43 -57 98 -79 122 -32 35
-42 54 -49 100 -6 38 -24 82 -52 128 -23 38 -50 99 -59 136 -52 196 -82 276
-120 325 -21 26 -43 67 -49 90 -34 138 -66 210 -114 255 -21 20 -23 26 -14 59
15 53 36 92 51 92 8 0 55 20 106 45 60 29 116 49 156 54 80 12 90 17 159 91
72 79 132 166 164 244 23 52 26 76 27 167 0 101 -1 107 -29 143 -33 44 -161
141 -249 190 -105 58 -327 109 -547 125 -89 7 -138 6 -215 -6 -76 -12 -132
-13 -235 -7 -198 11 -234 10 -355 -10 -83 -13 -140 -16 -230 -12 -148 7 -171
8 -215 5 -19 -1 -60 2 -91 6 -49 7 -58 5 -83 -16 -35 -30 -39 -97 -9 -137 19
-25 24 -26 123 -28 99 -1 105 -3 127 -28 13 -15 23 -34 23 -43 0 -9 10 -31 21
-50 33 -53 22 -159 -25 -256 -34 -70 -35 -76 -38 -207 l-3 -135 -42 -88 c-24
-49 -43 -102 -43 -118 0 -17 -7 -43 -15 -59 -10 -20 -13 -43 -9 -74 5 -34 2
-58 -14 -93 -11 -27 -23 -81 -27 -120 -9 -89 -31 -123 -79 -123 -47 0 -85 46
-151 185 -127 267 -137 284 -222 376 -46 49 -83 94 -83 99 0 6 -19 55 -41 108
-29 68 -56 113 -90 150 -38 41 -53 69 -70 125 -14 47 -34 88 -59 117 -20 25
-42 61 -49 81 -6 20 -22 46 -35 58 -13 12 -30 43 -36 68 -10 35 -23 52 -59 79
-65 47 -189 93 -306 114 -55 10 -128 25 -161 34 -34 9 -100 16 -146 16 -77 0
-88 -3 -138 -33z m3424 -174 c91 -80 142 -151 155 -216 12 -54 1 -219 -16
-265 -5 -12 -51 -56 -102 -97 -80 -63 -107 -78 -180 -100 -47 -15 -111 -40
-141 -55 -46 -24 -71 -29 -153 -33 -88 -5 -101 -3 -118 14 -10 10 -19 23 -19
27 0 30 37 137 84 243 35 78 67 172 87 254 35 144 62 209 100 237 41 31 100
47 171 48 l67 0 65 -57z"/>
</g>
</svg>
