<svg version="1" xmlns="http://www.w3.org/2000/svg" width="849.333" height="849.333" viewBox="0 0 637.000000 637.000000"><path d="M105 192.3c-4.6 2.7-5.6 3.7-5.8 6.3-.3 2.6.3 3.7 3.3 6.1 4.3 3.6 8.3 4.9 19.3 6.2 11.5 1.4 16 2.8 18.9 5.7 2.4 2.5 2.5 2.8 2.1 14.2-.4 11.3-.6 12.1-5.7 25.2-3.3 8.3-5.8 16.6-6.5 21.5-1.1 7.1-1.7 8.4-5 11.9-3.6 3.7-3.7 4-3.5 11 .2 6.6 0 7.5-3.4 13.1-2.1 3.5-4.2 8.6-4.9 12-.6 3.3-3.1 10.6-5.5 16.3-2.4 5.7-5.7 16-7.4 23-3.6 15.3-5.4 19-12.7 26.4-4.3 4.5-6.8 6.1-10.8 7.3-6.2 1.8-8.4 3.7-8.4 7.1 0 3.9 1.8 6.4 5.8 8.1 5.1 2.1 21.7 2.9 29 1.4 4.9-1.1 6.6-1 11.5.4 4.4 1.3 8.8 1.6 19.2 1.3 15-.3 16.8-1.1 18.1-7.5.6-2.8.3-3.4-2.7-5.2-2.6-1.6-5.1-2.1-10.2-2.1h-6.9l-6.9-6.6c-7.7-7.5-9.3-11.1-8.4-18.1.8-5.3 3.8-14.9 6.5-20.3 1-1.9 3.9-10.5 6.4-19 2.6-8.5 6.3-19.5 8.2-24.4 2.6-6.5 3.7-11.4 4.3-18 .5-5 1.6-10.8 2.5-12.8.9-2.1 1.6-5.8 1.6-8.3 0-3.3.9-6.1 3.2-10.2 1.8-3.2 3.7-8.3 4.4-11.3.9-4.8 1.4-5.5 3.6-5.8 2-.2 3.2.5 5.4 3.5 3.6 4.7 4 5.1 8.5 6.3 2.4.7 4 1.9 4.8 3.7.7 1.5 3.6 6.3 6.6 10.7 2.9 4.5 5.6 9.8 6 12 .4 2.5 2 5.2 4.6 7.9 2.1 2.3 4.3 5.6 4.8 7.3.5 1.7 3.1 6.5 5.9 10.5 2.7 4.1 5.2 8.8 5.6 10.6.4 1.7 3 6.4 5.8 10.4 13.5 19.2 27 43.1 31.8 56.2 6.4 17.7 13.9 28.2 19.6 27.5 3.5-.4 5.1-4.4 6.4-15.8.4-4.1 2.3-13.1 4.3-20 2.1-7.5 4-17.1 4.6-24 .9-8.5 1.9-12.9 3.8-16.9 1.4-3 3.4-8.6 4.4-12.4 1.1-3.7 3.3-9.9 5.1-13.5 2.4-5.3 3.1-8.2 3.3-14.2.2-6 1.3-10.6 5.5-23 2.8-8.5 6.4-17.2 7.8-19.3 3.3-4.9 6.1-16.2 5.5-22.1-.7-5.6 2.6-11.8 8.7-16.6 4.4-3.5 20-8.9 28.1-9.7 8.4-.9 20.9 6.8 20.9 12.9 0 1.2-1.8 5.7-4.1 10.1-3.5 6.8-4 8.6-3.5 12 .8 5.1-2.4 15.3-7.1 22.2-3.1 4.7-3.3 5.4-3.3 14.1 0 11-.6 13-10.9 33.9-11.4 23-20.4 47.7-21.1 58-.5 6.6-1.1 8.8-3.2 11.5-1.4 1.9-2.8 4.6-3.2 6-.8 3.2-2.2 4.9-6.9 8.4-3.2 2.5-5.1 3-13 3.7-11.4 1.1-14.1 2.7-14.5 8.8-.2 2.6.3 5.2 1.2 6.6 2.9 4.4 14.4 5.9 22.6 3 3.2-1.1 8.8-1.5 21.9-1.5 11.3 0 20-.5 24.2-1.4 6.6-1.4 14.2-4.7 15.4-6.6 1.2-1.9-1.7-5.1-6.1-7-10.1-4.4-12-10.9-6.4-22 2.2-4.3 3-7.4 3-11 0-3.1 1-7.4 2.5-11.2 1.4-3.4 2.5-7.8 2.5-9.8 0-2.1 1.1-5.7 2.4-8.1 1.3-2.4 2.6-6.3 3-8.5.5-3.7 11-25.7 13.8-29.1.6-.7 2.8-1.3 5-1.3 5 0 8.5 3.4 11.2 11.1 1 3 3.3 7.2 5.1 9.4 4.2 5.2 5 6.9 6.5 13.5.7 3 2.6 7.3 4.1 9.4 2.4 3.4 2.9 5 2.9 10 0 5.2.5 6.9 3.5 11.7 1.9 3.2 3.9 7.9 4.4 10.6 2 10.2 12.5 35.3 18.2 43.4 1 1.4 2.3 4.8 2.9 7.4.6 2.7 2.4 6.3 4.1 8.2 1.6 1.9 4.7 7 6.9 11.3 2.2 4.3 5.3 9.4 7 11.3 1.6 1.9 3.8 5.4 4.9 7.8 2.7 6.3 11.6 16.3 19.2 21.5 10.2 7.3 13 8.4 20.4 8.4 4 0 8.8.8 12.6 2.1 4.9 1.7 7.3 2 12.7 1.4 22.7-2.3 39.8-11 45.7-23 3-6.2 3.3-17.3.6-22.9-3.6-7.3-11.3-9.6-19.1-5.6-5 2.6-6 4.6-7 13.9-1.3 12.1-3.5 19.3-6.7 21.8-4.3 3.5-7.9 3-12.5-1.7-3.5-3.5-4.6-4-8.6-4-4.3 0-4.8-.3-13.6-9.2-5.1-5.1-11.8-12.7-15.1-16.8-3.2-4.1-7.6-9.5-9.8-12-2.2-2.5-5.7-8-7.9-12.3-2.1-4.3-5.7-9.8-7.9-12.2-3.2-3.5-4.2-5.4-4.9-10-.6-3.8-2.4-8.2-5.2-12.8-2.3-3.8-5-9.9-5.9-13.6-5.2-19.6-8.2-27.6-12-32.5-2.1-2.6-4.3-6.7-4.9-9-3.4-13.8-6.6-21-11.4-25.5-2.1-2-2.3-2.6-1.4-5.9 1.5-5.3 3.6-9.2 5.1-9.2.8 0 5.5-2 10.6-4.5 6-2.9 11.6-4.9 15.6-5.4 8-1.2 9-1.7 15.9-9.1 7.2-7.9 13.2-16.6 16.4-24.4 2.3-5.2 2.6-7.6 2.7-16.7 0-10.1-.1-10.7-2.9-14.3-3.3-4.4-16.1-14.1-24.9-19-10.5-5.8-32.7-10.9-54.7-12.5-8.9-.7-13.8-.6-21.5.6-7.6 1.2-13.2 1.3-23.5.7-19.8-1.1-23.4-1-35.5 1-8.3 1.3-14 1.6-23 1.2-14.8-.7-17.1-.8-21.5-.5-1.9.1-6-.2-9.1-.6-4.9-.7-5.8-.5-8.3 1.6-3.5 3-3.9 9.7-.9 13.7 1.9 2.5 2.4 2.6 12.3 2.8 9.9.1 10.5.3 12.7 2.8 1.3 1.5 2.3 3.4 2.3 4.3 0 .9 1 3.1 2.1 5 3.3 5.3 2.2 15.9-2.5 25.6-3.4 7-3.5 7.6-3.8 20.7l-.3 13.5-4.2 8.8c-2.4 4.9-4.3 10.2-4.3 11.8 0 1.7-.7 4.3-1.5 5.9-1 2-1.3 4.3-.9 7.4.5 3.4.2 5.8-1.4 9.3-1.1 2.7-2.3 8.1-2.7 12-.9 8.9-3.1 12.3-7.9 12.3-4.7 0-8.5-4.6-15.1-18.5-12.7-26.7-13.7-28.4-22.2-37.6-4.6-4.9-8.3-9.4-8.3-9.9 0-.6-1.9-5.5-4.1-10.8-2.9-6.8-5.6-11.3-9-15-3.8-4.1-5.3-6.9-7-12.5-1.4-4.7-3.4-8.8-5.9-11.7-2-2.5-4.2-6.1-4.9-8.1-.6-2-2.2-4.6-3.5-5.8-1.3-1.2-3-4.3-3.6-6.8-1-3.5-2.3-5.2-5.9-7.9-6.5-4.7-18.9-9.3-30.6-11.4-5.5-1-12.8-2.5-16.1-3.4-3.4-.9-10-1.6-14.6-1.6-7.7 0-8.8.3-13.8 3.3zm342.4 17.4c9.1 8 14.2 15.1 15.5 21.6 1.2 5.4.1 21.9-1.6 26.5-.5 1.2-5.1 5.6-10.2 9.7-8 6.3-10.7 7.8-18 10-4.7 1.5-11.1 4-14.1 5.5-4.6 2.4-7.1 2.9-15.3 3.3-8.8.5-10.1.3-11.8-1.4-1-1-1.9-2.3-1.9-2.7 0-3 3.7-13.7 8.4-24.3 3.5-7.8 6.7-17.2 8.7-25.4 3.5-14.4 6.2-20.9 10-23.7 4.1-3.1 10-4.7 17.1-4.8h6.7l6.5 5.7z"/></svg>